<svg width="50" height="50" viewBox="0 0 50 50" fill="none" xmlns="http://www.w3.org/2000/svg">
<g clip-path="url(#clip0_1133_1263)">
<path d="M9.87294 43.3395C8.74934 44.4631 6.98369 44.4631 5.94035 43.3395C4.81676 42.2159 4.81676 40.4502 5.94035 39.4069L26.0046 19.3427C27.1282 18.2191 28.8938 18.2191 29.9371 19.3427C31.0607 20.4663 31.0607 22.2319 29.9371 23.2753L9.87294 43.3395Z" fill="#A35D17"/>
<path d="M29.9343 19.3438C31.0579 20.4673 31.0579 22.233 29.9343 23.2763L9.87008 43.3405C8.74649 44.4641 6.98084 44.4641 5.9375 43.3405" fill="#6B400C"/>
<path d="M9.30979 48.3137C8.02568 49.5978 6.01926 49.5978 4.73515 48.3137L0.963082 44.5416C-0.321027 43.2575 -0.321027 41.2511 0.963082 39.967C2.24719 38.6829 4.25361 38.6829 5.53772 39.967L9.30979 43.7391C10.5939 45.0232 10.5939 47.0296 9.30979 48.3137Z" fill="#F4AD31"/>
<path d="M5.53694 39.9688L9.30901 43.7408C10.5931 45.0249 10.5931 47.0314 9.30901 48.3155C8.02491 49.5996 6.01848 49.5996 4.73438 48.3155" fill="#DD820A"/>
<path d="M42.8569 26.8056C39.4861 30.1764 35.8746 28.3305 32.5038 24.9597L24.2373 16.6933C20.8666 13.3225 19.1009 9.71091 22.3914 6.34013L23.8361 4.8955C27.2068 1.52472 30.8184 3.37062 34.1892 6.74141L42.4556 15.0079C45.8264 18.3786 47.5921 21.9902 44.3015 25.361L42.8569 26.8056Z" fill="#F4AD31"/>
<path d="M34.1893 6.82227L42.4558 15.0887C45.8265 18.4595 47.5922 22.0711 44.3017 25.4418L42.857 26.8865C39.4863 30.2573 35.8747 28.4114 32.5039 25.0406" fill="#DD820A"/>
<path d="M20.6254 12.1983C19.9833 12.8404 18.94 12.8404 18.2979 12.1983C17.6559 11.5563 17.6559 10.5129 18.2979 9.87088L27.2867 0.801853C27.9288 0.159799 28.9721 0.159799 29.6142 0.801853C30.2562 1.44391 30.2562 2.48725 29.6142 3.1293L20.6254 12.1983Z" fill="#F4AD31"/>
<path d="M29.615 0.802734C30.2571 1.44479 30.2571 2.48813 29.615 3.13018L20.6263 12.1992C19.9842 12.8413 18.9409 12.8413 18.2988 12.1992" fill="#DD820A"/>
<path d="M39.4066 30.9794C38.7646 31.6214 37.7213 31.6214 37.0792 30.9794C36.4371 30.3373 36.4371 29.294 37.0792 28.6519L46.068 19.6632C46.71 19.0211 47.7534 19.0211 48.3954 19.6632C49.0375 20.3052 49.0375 21.3486 48.3954 21.9906L39.4066 30.9794Z" fill="#F4AD31"/>
<path d="M48.4746 19.6641C49.1166 20.3061 49.1166 21.3495 48.4746 21.9915L39.4056 30.9803C38.7635 31.6223 37.7202 31.6223 37.0781 30.9803" fill="#DD820A"/>
<path d="M31.0603 25.4431C30.4985 26.0049 29.5354 26.0049 28.9736 25.4431L23.9174 20.3869C23.3556 19.8251 23.3556 18.8621 23.9174 18.3003C24.4792 17.7385 25.4423 17.7385 26.0041 18.3003L31.0603 23.3564C31.6221 23.9182 31.6221 24.8813 31.0603 25.4431Z" fill="#DD820A"/>
<path d="M49.1176 40.8516H32.2637V48.0747H49.1176V40.8516Z" fill="#D32A0F"/>
<path d="M32.2637 40.8516H49.1176V48.0747" fill="#AF1909"/>
<path d="M49.92 49.0375C49.92 49.3585 49.6792 49.6795 49.278 49.6795H32.103C31.782 49.6795 31.4609 49.4388 31.4609 49.0375V48.6362C31.4609 48.3152 31.7017 47.9941 32.103 47.9941H49.3582C49.6792 47.9941 50.0003 48.2349 50.0003 48.6362V49.0375H49.92Z" fill="#AF1909"/>
<path d="M49.92 40.2094C49.92 40.5304 49.6792 40.8514 49.278 40.8514H32.103C31.782 40.8514 31.4609 40.6106 31.4609 40.2094V39.8081C31.4609 39.487 31.7017 39.166 32.103 39.166H49.3582C49.6792 39.166 50.0003 39.4068 50.0003 39.8081V40.2094H49.92Z" fill="#AF1909"/>
</g>
<defs>
<clipPath id="clip0_1133_1263">
<rect width="50" height="50" fill="white"/>
</clipPath>
</defs>
</svg>
